# xmcd CD database file
#
# Track frame offsets:
#	182
#	12557
#	24742
#	36592
#	48122
#	60842
#	72090
#	85330
#	97602
#	111385
#	124102
#	137400
#	149272
#	161677
#	173187
#	182482
#
# Disc length: 2586 seconds
#
# Revision: 0
# Processed by: cddbd v1.4PL0 Copyright (c) Steve Scherf et al.
# Submitted via: CDex 1.50Beta6
#
DISCID=d10a1810
DTITLE=Wynonie Harris - Mr Blues Is Coming To Town
DYEAR=1977
DGENRE=Blues
TTITLE0=Sittin' On It All The Time
TTITLE1=Drinkin' By Myself
TTITLE2=Wynonie's Boogie
TTITLE3=Big city Blues
TTITLE4=Bite Again, Bite Again
TTITLE5=Blowin' to California
TTITLE6=A Love Untrue
TTITLE7=Rock Mr Blues
TTITLE8=Mr Blues Is Coming to Town
TTITLE9=Be Mine My Love
TTITLE10=Keep-a-Talking
TTITLE11=Here Comes the Night
TTITLE12=Christina
TTITLE13=My Playful Baby's Gone
TTITLE14=Wine, Wine, Sweet Wine
TTITLE15=Fishtail Blues
EXTD=YEAR: 1977
EXTT0=
EXTT1=
EXTT2=
EXTT3=
EXTT4=
EXTT5=
EXTT6=
EXTT7=
EXTT8=
EXTT9=
EXTT10=
EXTT11=
EXTT12=
EXTT13=
EXTT14=
EXTT15=
PLAYORDER=
